inDegrees=no
num_controls=7
num_derivatives=13
num_iterations=187
num_multipliers=7
num_parameters=0
num_slacks=7
num_states=26
objective=0.227575
objective_accelerations=0.000000
objective_balance=0.003206
objective_effort=0.047792
objective_height=0.176577
objective_ligament=0.000000
solver_duration=2483.815366
status=Solve_Succeeded
success=true
DataType=double
version=3
OpenSimVersion=4.5
endheader
time	/jointset/ground_pelvis/pelvis_tilt/value	/jointset/ground_pelvis/pelvis_tx/value	/jointset/ground_pelvis/pelvis_ty/value	/jointset/hip_l/hip_flexion_l/value	/jointset/hip_l/hip_adduction_l/value	/jointset/hip_l/hip_rotation_l/value	/jointset/back/lumbar_extension/value	/jointset/patellofemoral_l/patellar_flexion_l/value	/jointset/knee_l/knee_flexion_l/value	/jointset/knee_l/knee_adduction_l/value	/jointset/knee_l/knee_rotation_l/value	/jointset/ankle_l/ankle_angle_l/value	/jointset/subtalar_l/subtalar_angle_l/value	/jointset/ground_pelvis/pelvis_tilt/speed	/jointset/ground_pelvis/pelvis_tx/speed	/jointset/ground_pelvis/pelvis_ty/speed	/jointset/hip_l/hip_flexion_l/speed	/jointset/hip_l/hip_adduction_l/speed	/jointset/hip_l/hip_rotation_l/speed	/jointset/back/lumbar_extension/speed	/jointset/patellofemoral_l/patellar_flexion_l/speed	/jointset/knee_l/knee_flexion_l/speed	/jointset/knee_l/knee_adduction_l/speed	/jointset/knee_l/knee_rotation_l/speed	/jointset/ankle_l/ankle_angle_l/speed	/jointset/subtalar_l/subtalar_angle_l/speed	/forceset/tau_hip_flexion_l	/forceset/tau_hip_adduction_l	/forceset/tau_hip_rotation_l	/forceset/tau_knee_flexion_l	/forceset/tau_ankle_angle_l	/forceset/tau_subtalar_angle_l	/forceset/tau_lumbar_extension	lambda_cid13_p0	lambda_cid13_p1	lambda_cid13_p2	lambda_cid13_p3	lambda_cid13_p4	lambda_cid13_p5	lambda_cid14_p0	/jointset/ground_pelvis/pelvis_tilt/accel	/jointset/ground_pelvis/pelvis_tx/accel	/jointset/ground_pelvis/pelvis_ty/accel	/jointset/hip_l/hip_flexion_l/accel	/jointset/hip_l/hip_adduction_l/accel	/jointset/hip_l/hip_rotation_l/accel	/jointset/back/lumbar_extension/accel	/jointset/patellofemoral_l/patellar_flexion_l/accel	/jointset/knee_l/knee_flexion_l/accel	/jointset/knee_l/knee_adduction_l/accel	/jointset/knee_l/knee_rotation_l/accel	/jointset/ankle_l/ankle_angle_l/accel	/jointset/subtalar_l/subtalar_angle_l/accel	gamma_cid13_p0	gamma_cid13_p1	gamma_cid13_p2	gamma_cid13_p3	gamma_cid13_p4	gamma_cid13_p5	gamma_cid14_p0
0	-0.04643024500423108	0.07197167637166629	0.8962339887943387	0.1955287580552426	-0.3189289010849745	-0.542987288896062	-0.1379045077516729	0.0701528807908493	0.07015288079084844	-0.1745313688134589	-0.1744961852937054	-0.06701059314715049	0.007794332775883241	0	0	0	0	0	0	0	0	0	0	0	0	0	0.1525239519378381	-0.1007372990011997	0.07955071506774848	0.3433743549379343	0.1982793400803073	-0.06800619826340744	-0.4756048860974772	137.2640925949076	1.670544443412847	3.773218078821696	-453.9785759998059	999.9494769264492	197.3998213718377	-41.6442038741956	234.2602202663225	-21.35316170439292	-7.941414316481053	191.1448982717119	-34.48194910979944	306.6749827584226	-329.3298799768652	666.699901630555	666.6999016295147	344.5126660762043	56.15338205960571	372.2699348612543	163.8989708965662	0.004458348939177566	0.02037775533090411	-0.01221095438763125	0.001569302535421341	0.0112322201486227	0.01576250247668119	0.003827142877778229
0.01	-0.03636068524488237	0.0709899756124643	0.8957553710024142	0.2048661770946085	-0.3200743864769946	-0.5307007518436881	-0.1522787869835907	0.1003955277537933	0.1003955277537914	-0.1584664889139488	-0.1732000639470671	-0.0502279121953706	0.01568140410976692	1.88391452998129	-0.1869602119109197	-0.1231326194052458	1.733265287526113	-0.1751142497957175	2.127549414069528	-2.692165284066918	5.620427059391203	5.62042705938852	3.023062695023333	0.1958165761968903	3.106779483051378	1.522780865628687	0.152285845800086	-0.09532000063915506	0.03303308443728888	0.2554996325809072	0.1502925432262877	-0.09067342963590323	-0.3945292153773058	115.2494922660067	14.60308104375187	2.552681222414464	-303.7876196857982	999.9944014532986	173.5925050201252	-41.96424255992744	145.5689479262589	-15.64659943790393	-16.36410087587353	144.0283500121495	-2.111295188870229	119.1829972986788	-211.7562682741199	444.7333295382568	444.7333295385061	254.2296419858602	-11.27148466963574	243.2135622998722	136.4335325627056	0.002294826984107975	0.01112320193913186	-0.007355795236375712	0.0008237566976749037	0.005572875008417896	0.00967826579293489	0.001926190084812362
0.02	-0.01142960447327461	0.06848284303346062	0.8936724439917718	0.2274584502130529	-0.3215880408218547	-0.5064611053371265	-0.1880940021866801	0.1738462895996178	0.1738462895996188	-0.1175656679101058	-0.1724592328523363	-0.009711114958518393	0.0367894617332746	2.972304202451647	-0.3050863639603332	-0.3208618437435782	2.650970815815767	-0.07363379056792806	2.39062189083749	-4.288187194234427	8.641622976576564	8.641622976576461	4.967188220865166	-0.1110580503808768	4.746823257014464	2.644197257924801	0.1520477396623339	-0.08990270227710977	-0.01348454619315138	0.1676249102238767	0.1023057463722676	-0.1133406610083988	-0.3134535446571347	91.74547245351184	29.52210196750816	-0.8873285747454834	-116.7149863113432	999.8783229885069	158.8294782670629	-42.44236261752359	75.15524876413575	-7.586349732091668	-22.86073530309835	28.03294642442015	20.83699269490196	-66.22040470189073	-110.1012051969833	146.8536731893864	146.8536731893989	128.7252322399046	-44.38485849532579	78.92279304359607	83.62607623005144	0.0001313050290383836	0.00186864854735961	-0.002500636085120177	7.821085992846632e-05	-8.647013178690946e-05	0.003594029109188591	2.523729184649576e-05
0.03	0.01814276580256173	0.06505259014833376	0.8889114015278695	0.2592810264162415	-0.321022328525091	-0.4855110188842033	-0.2319847953808936	0.2665816138924452	0.2665816138924456	-0.06094143226180163	-0.1745004648031661	0.04097259700438911	0.06749715013965803	2.591678319695376	-0.3793313912341733	-0.6677658244654735	4.06682484009134	0.1835024633442939	1.842702492105011	-4.086969897361608	9.847770723540933	9.847770723540874	6.339686227318146	-0.1813502819565724	5.323872476005671	3.476920842743715	0.1992807303423945	-0.07446886739572282	-0.02524417397885943	0.1512214622063795	0.1014429721829131	-0.08169426539296876	-0.2480189376542109	90.04144026038179	19.49652652020327	-3.195280764834128	-49.04702193959164	999.9933114529402	143.0188956376028	-42.33054724888491	-147.3212343829178	-7.086026084793593	-46.10826583835241	251.274207381177	28.06139712537465	-42.17292754191666	145.683429216409	98.84728484173095	98.84728484173191	138.7300404597829	28.59713493405256	37.18954840268373	80.05628558434536	0.002233924485149774	-4.870843627404267e-05	-0.0009516415994590209	-0.0003760235573571396	-0.003004784484884897	-0.002441042056136505	0.001584517402991149
0.04	0.0333789317333522	0.06093139761851583	0.8795807119804249	0.3158446582525953	-0.3179033626120062	-0.4686591704352027	-0.2617733691889796	0.3696488075332706	0.36964880753327	0.008851374573389265	-0.1738549109851745	0.0954455135723688	0.1059242315895374	0.1050633334427332	-0.4432742928985468	-1.234791260452061	7.599181942448963	0.4370169326962093	1.570974290052923	-1.467743317009005	10.70799684617606	10.70799684617606	7.600902458242656	0.4262991033774916	5.504664178028906	4.188075866623987	0.2465137210224546	-0.05903503251433608	-0.03700380176457375	0.1348180141888825	0.1005801979935582	-0.0500478697775391	-0.1825843306512873	85.78188771676541	10.86060291819967	-6.801524579929873	17.03235444655046	950.6572742562204	136.6420395093004	-41.20956393760891	-346.0425719351388	-5.52592461019833	-66.88502635603682	451.3335620408302	20.11263578284064	-10.98216536581269	373.5006514989735	77.66934832353763	77.66934832355362	106.4688771342106	91.20346488662605	-0.3287103499983353	59.31236404232293	0.004424505619842217	-0.00181478301973989	0.0005291845425816318	-0.0008242515536023161	-0.005866582739279653	-0.008475099499432301	0.003215142522467979
0.05	0.01825276275593611	0.05629927551087252	0.863996323903083	0.4116301890516713	-0.3137708910174637	-0.4512811550616693	-0.2588224568937386	0.4796872821419186	0.4796872821419191	0.08575651149057285	-0.1630453371216825	0.1494372755989665	0.1486759479657095	-3.052147902621427	-0.4801378462001179	-1.860145802019392	11.38257526865271	0.3042237471308737	2.146443529400381	1.976956188212817	11.30935596666575	11.30935596666574	7.353320786061512	1.812555310039287	5.235858022391253	4.184002473336484	0.2400419377019319	-0.06022952055678232	-0.0361011741776091	0.1266413565924457	0.1042128669335311	-0.05196442119243836	-0.1636937984279449	74.8931315713978	19.83149382385393	-15.36101421215638	77.86557617231392	791.4904564031573	186.5071859863715	-38.81291661852298	-287.9414099631092	-2.483200680733026	-58.26602729785534	316.371242529741	-43.93131647013989	128.1574890308048	317.8091618571274	52.16167230537014	52.16167230535993	-154.3251886573867	173.9908396907808	-47.91758157400763	-56.89043200609286	-0.001351876271621788	-0.004408932991679564	0.005941020245781661	-0.0004209803005495553	-0.002824678256465831	-0.001924218472450396	-0.0008639471397574069
